name C:\Users\u0101727\Documents\MyRepositories\upper-imu-dc\Results\main_tracking\Case_10\FLX01_linearAccelerations_groundFrame.mot
datacolumns 4
datarows 58
range 5.01000000 5.58000000
endheader 
time	radius_imu_x	radius_imu_y	radius_imu_z	
          5.01000000	         -0.27412021	         10.75189784	         -1.71883166	
          5.02000000	         -0.13239347	         10.77897969	         -1.83350150	
          5.03000000	          0.01692406	         10.79626582	         -1.90618241	
          5.04000000	          0.14069375	         10.81138840	         -1.88609889	
          5.05000000	          0.20999759	         10.83110654	         -1.75646758	
          5.06000000	          0.21318249	         10.85788732	         -1.54709882	
          5.07000000	          0.16078264	         10.88674960	         -1.32171886	
          5.08000000	          0.08019486	         10.90485457	         -1.14788949	
          5.09000000	          0.00374707	         10.89587243	         -1.06696120	
          5.10000000	         -0.04260914	         10.84674792	         -1.08228235	
          5.11000000	         -0.04526233	         10.75240486	         -1.17078891	
          5.12000000	         -0.00277513	         10.61607384	         -1.30871275	
          5.13000000	          0.07725883	         10.44743060	         -1.49092954	
          5.14000000	          0.18003047	         10.26207643	         -1.72545118	
          5.15000000	          0.28464890	         10.08129204	         -2.00922425	
          5.16000000	          0.36920732	          9.92820981	         -2.31241301	
          5.17000000	          0.42151181	          9.82004040	         -2.59044306	
          5.18000000	          0.44949690	          9.76102907	         -2.81451614	
          5.19000000	          0.48129854	          9.74157866	         -2.99317554	
          5.20000000	          0.55289441	          9.74436780	         -3.17035512	
          5.21000000	          0.69240391	          9.75372682	         -3.40677706	
          5.22000000	          0.91025642	          9.76382166	         -3.75596464	
          5.23000000	          1.19656401	          9.78225434	         -4.24125235	
          5.24000000	          1.52253939	          9.82685371	         -4.83945867	
          5.25000000	          1.84497257	          9.91614858	         -5.48061979	
          5.26000000	          2.11553703	         10.05861405	         -6.07004019	
          5.27000000	          2.29356447	         10.24797772	         -6.52190968	
          5.28000000	          2.35622591	         10.46678299	         -6.78455320	
          5.29000000	          2.30096301	         10.69372161	         -6.84952996	
          5.30000000	          2.13966979	         10.90934288	         -6.74668151	
          5.31000000	          1.88873869	         11.09839262	         -6.52873942	
          5.32000000	          1.56162753	         11.24985989	         -6.25237633	
          5.33000000	          1.16755507	         11.35651699	         -5.96325671	
          5.34000000	          0.71472309	         11.41483873	         -5.68887677	
          5.35000000	          0.21430840	         11.42501508	         -5.43950659	
          5.36000000	         -0.31774534	         11.39063603	         -5.21389868	
          5.37000000	         -0.86186912	         11.31807532	         -5.00515855	
          5.38000000	         -1.39763740	         11.21567816	         -4.80482910	
          5.39000000	         -1.90683948	         11.09301247	         -4.60498664	
          5.40000000	         -2.37634921	         10.96051311	         -4.39833961	
          5.41000000	         -2.80013496	         10.82949031	         -4.17788871	
          5.42000000	         -3.17942413	         10.71201493	         -3.93855168	
          5.43000000	         -3.52063492	         10.61995900	         -3.68047818	
          5.44000000	         -3.83189020	         10.56267285	         -3.41092617	
          5.45000000	         -4.11970296	         10.54359282	         -3.14214994	
          5.46000000	         -4.38726685	         10.55734669	         -2.88612672	
          5.47000000	         -4.63484804	         10.58947684	         -2.64930647	
          5.48000000	         -4.86150403	         10.61984970	         -2.43062487	
          5.49000000	         -5.06668585	         10.62876404	         -2.22401808	
          5.50000000	         -5.25070378	         10.60318262	         -2.02374054	
          5.51000000	         -5.41400158	         10.54041816	         -1.82899456	
          5.52000000	         -5.55597114	         10.44815376	         -1.64545135	
          5.53000000	         -5.67415288	         10.34155691	         -1.48364939	
          5.54000000	         -5.76424234	         10.23892564	         -1.35555088	
          5.55000000	         -5.82089861	         10.15710920	         -1.27046441	
          5.56000000	         -5.83914477	         10.10808376	         -1.23167465	
          5.57000000	         -5.81596979	         10.09747132	         -1.23488671	
          5.58000000	         -5.75164057	         10.12419475	         -1.26816724	
